# xmcd
#
# Track frame offsets: 
#        187
#        13980
#        27645
#        40050
#        53915
#        64005
#        77182
#        88055
#        101195
#        113310
#        126235
#        138125
#        151362
#        165767
#
# Disc length: 2377 seconds
#
# Revision: 3
# Processed by: cddbd v1.5.2PL0 Copyright (c) Steve Scherf et al.
# Submitted via: ExactAudioCopy v0.95b4
#
DISCID=af09470e
DTITLE=Albert King and Otis Rush - Door To Door
DYEAR=1990
DGENRE=Blues
TTITLE0=Albert King - Searchin' For A Woman
TTITLE1=Albert King - Bad Luck
TTITLE2=Otis Rush - So Close
TTITLE3=Albert King - Howlin' For My Darling
TTITLE4=Otis Rush - I Can't Stop
TTITLE5=Albert King - Won't Be Hangin' Around
TTITLE6=Otis Rush - I'm Satisfied
TTITLE7=Otis Rush - All Your Love
TTITLE8=Otis Rush - You Know My Love
TTITLE9=Albert King - Merry Way
TTITLE10=Albert King - Wild Women
TTITLE11=Albert King - Murder
TTITLE12=Otis Rush - So Many Roads
TTITLE13=Albert King - California
EXTD=
EXTT0=
EXTT1=
EXTT2=
EXTT3=
EXTT4=
EXTT5=
EXTT6=
EXTT7=
EXTT8=
EXTT9=
EXTT10=
EXTT11=
EXTT12=
EXTT13=
PLAYORDER=
